<mxfile host="65bd71144e">
    <diagram id="information-structure" name="信息结构图">
        <mxGraphModel dx="3261" dy="2252" grid="1" gridSize="10" guides="1" tooltips="1" connect="1" arrows="1" fold="1" page="1" pageScale="1" pageWidth="1169" pageHeight="827" math="0" shadow="0">
            <root>
                <mxCell id="0"/>
                <mxCell id="1" parent="0"/>
                <mxCell id="2" value="番茄商城信息结构图" style="text;html=1;strokeColor=none;fillColor=none;align=center;verticalAlign=middle;whiteSpace=wrap;rounded=0;fontSize=18;fontStyle=1" parent="1" vertex="1">
                    <mxGeometry x="40" y="30" width="200" height="30" as="geometry"/>
                </mxCell>
                <mxCell id="131" value="主数据实体" style="rounded=1;whiteSpace=wrap;html=1;fillColor=#f8cecc;strokeColor=#b85450;fontStyle=1" parent="1" vertex="1">
                    <mxGeometry x="40" y="70" width="120" height="30" as="geometry"/>
                </mxCell>
                <mxCell id="132" value="关联数据实体" style="rounded=1;whiteSpace=wrap;html=1;fillColor=#d5e8d4;strokeColor=#82b366;fontStyle=1" parent="1" vertex="1">
                    <mxGeometry x="40" y="110" width="120" height="30" as="geometry"/>
                </mxCell>
                <mxCell id="133" value="属性" style="ellipse;whiteSpace=wrap;html=1;fillColor=#fff2cc;strokeColor=#d6b656;" parent="1" vertex="1">
                    <mxGeometry x="180" y="70" width="100" height="30" as="geometry"/>
                </mxCell>
                <mxCell id="134" value="关联关系" style="endArrow=classic;html=1;dashed=1;" parent="1" edge="1">
                    <mxGeometry x="-0.0909" y="20" width="50" height="50" relative="1" as="geometry">
                        <mxPoint x="180" y="132.5" as="sourcePoint"/>
                        <mxPoint x="290" y="132.5" as="targetPoint"/>
                        <mxPoint as="offset"/>
                    </mxGeometry>
                </mxCell>
                <mxCell id="136" value="属性连接" style="endArrow=none;html=1;" parent="1" edge="1">
                    <mxGeometry width="50" height="50" relative="1" as="geometry">
                        <mxPoint x="310" y="131.5" as="sourcePoint"/>
                        <mxPoint x="410" y="131.5" as="targetPoint"/>
                    </mxGeometry>
                </mxCell>
                <mxCell id="3" value="用户信息" style="rounded=1;whiteSpace=wrap;html=1;fillColor=#f8cecc;strokeColor=#b85450;fontStyle=1" parent="1" vertex="1">
                    <mxGeometry x="80" y="180" width="120" height="60" as="geometry"/>
                </mxCell>
                <mxCell id="4" value="商品信息" style="rounded=1;whiteSpace=wrap;html=1;fillColor=#f8cecc;strokeColor=#b85450;fontStyle=1" parent="1" vertex="1">
                    <mxGeometry x="80" y="360" width="120" height="60" as="geometry"/>
                </mxCell>
                <mxCell id="5" value="订单信息" style="rounded=1;whiteSpace=wrap;html=1;fillColor=#f8cecc;strokeColor=#b85450;fontStyle=1" parent="1" vertex="1">
                    <mxGeometry x="80" y="540" width="120" height="60" as="geometry"/>
                </mxCell>
                <mxCell id="62" value="商品评论信息" style="rounded=1;whiteSpace=wrap;html=1;fillColor=#d5e8d4;strokeColor=#82b366;fontStyle=1" parent="1" vertex="1">
                    <mxGeometry x="280" y="320" width="120" height="60" as="geometry"/>
                </mxCell>
                <mxCell id="63" value="商品分类信息" style="rounded=1;whiteSpace=wrap;html=1;fillColor=#d5e8d4;strokeColor=#82b366;fontStyle=1" parent="1" vertex="1">
                    <mxGeometry x="280" y="400" width="120" height="60" as="geometry"/>
                </mxCell>
                <mxCell id="64" value="优惠券信息" style="rounded=1;whiteSpace=wrap;html=1;fillColor=#d5e8d4;strokeColor=#82b366;fontStyle=1" parent="1" vertex="1">
                    <mxGeometry x="280" y="540" width="120" height="60" as="geometry"/>
                </mxCell>
                <mxCell id="71" value="" style="endArrow=classic;html=1;exitX=1;exitY=0.5;exitDx=0;exitDy=0;entryX=0;entryY=0.5;entryDx=0;entryDy=0;dashed=1;" parent="1" source="3" target="61" edge="1">
                    <mxGeometry width="50" height="50" relative="1" as="geometry"/>
                </mxCell>
                <mxCell id="72" value="1:1" style="edgeLabel;html=1;align=center;verticalAlign=middle;resizable=0;points=[];" parent="71" vertex="1" connectable="0">
                    <mxGeometry x="-0.3" relative="1" as="geometry">
                        <mxPoint as="offset"/>
                    </mxGeometry>
                </mxCell>
                <mxCell id="77" value="" style="endArrow=classic;html=1;entryX=0;entryY=0.5;entryDx=0;entryDy=0;exitX=1;exitY=0.25;exitDx=0;exitDy=0;dashed=1;" parent="1" source="4" target="62" edge="1">
                    <mxGeometry width="50" height="50" relative="1" as="geometry">
                        <mxPoint x="200" y="375" as="sourcePoint"/>
                        <mxPoint x="280" y="350" as="targetPoint"/>
                        <Array as="points">
                            <mxPoint x="230" y="375"/>
                            <mxPoint x="230" y="350"/>
                        </Array>
                    </mxGeometry>
                </mxCell>
                <mxCell id="78" value="n:1" style="edgeLabel;html=1;align=center;verticalAlign=middle;resizable=0;points=[];" parent="77" vertex="1" connectable="0">
                    <mxGeometry x="-0.3" relative="1" as="geometry">
                        <mxPoint x="20" as="offset"/>
                    </mxGeometry>
                </mxCell>
                <mxCell id="79" value="" style="endArrow=classic;html=1;entryX=0;entryY=0.5;entryDx=0;entryDy=0;exitX=1;exitY=0.75;exitDx=0;exitDy=0;dashed=1;" parent="1" source="4" target="63" edge="1">
                    <mxGeometry width="50" height="50" relative="1" as="geometry">
                        <mxPoint x="200" y="405" as="sourcePoint"/>
                        <mxPoint x="280" y="430" as="targetPoint"/>
                        <Array as="points">
                            <mxPoint x="230" y="405"/>
                            <mxPoint x="230" y="430"/>
                        </Array>
                    </mxGeometry>
                </mxCell>
                <mxCell id="80" value="1:n" style="edgeLabel;html=1;align=center;verticalAlign=middle;resizable=0;points=[];" parent="79" vertex="1" connectable="0">
                    <mxGeometry x="-0.3" relative="1" as="geometry">
                        <mxPoint x="20" as="offset"/>
                    </mxGeometry>
                </mxCell>
                <mxCell id="81" value="" style="endArrow=classic;html=1;exitX=1;exitY=0.5;exitDx=0;exitDy=0;entryX=0;entryY=0.5;entryDx=0;entryDy=0;dashed=1;" parent="1" source="5" target="64" edge="1">
                    <mxGeometry width="50" height="50" relative="1" as="geometry"/>
                </mxCell>
                <mxCell id="82" value="1:n" style="edgeLabel;html=1;align=center;verticalAlign=middle;resizable=0;points=[];" parent="81" vertex="1" connectable="0">
                    <mxGeometry x="-0.3" relative="1" as="geometry">
                        <mxPoint as="offset"/>
                    </mxGeometry>
                </mxCell>
                <mxCell id="73" value="" style="curved=1;endArrow=classic;html=1;exitX=0;exitY=0.25;exitDx=0;exitDy=0;entryX=0;entryY=0.75;entryDx=0;entryDy=0;dashed=1;" parent="1" source="4" target="3" edge="1">
                    <mxGeometry width="50" height="50" relative="1" as="geometry">
                        <mxPoint x="60" y="375" as="sourcePoint"/>
                        <mxPoint x="60" y="225" as="targetPoint"/>
                        <Array as="points">
                            <mxPoint x="30" y="375"/>
                            <mxPoint x="30" y="225"/>
                        </Array>
                    </mxGeometry>
                </mxCell>
                <mxCell id="74" value="n:1" style="edgeLabel;html=1;align=center;verticalAlign=middle;resizable=0;points=[];" parent="73" vertex="1" connectable="0">
                    <mxGeometry x="-0.3" relative="1" as="geometry">
                        <mxPoint x="-20" y="-75" as="offset"/>
                    </mxGeometry>
                </mxCell>
                <mxCell id="75" value="" style="curved=1;endArrow=classic;html=1;exitX=0;exitY=0.25;exitDx=0;exitDy=0;entryX=0;entryY=0.75;entryDx=0;entryDy=0;dashed=1;" parent="1" source="5" target="4" edge="1">
                    <mxGeometry width="50" height="50" relative="1" as="geometry">
                        <mxPoint x="20" y="555" as="sourcePoint"/>
                        <mxPoint x="20" y="405" as="targetPoint"/>
                        <Array as="points">
                            <mxPoint x="20" y="555"/>
                            <mxPoint x="20" y="405"/>
                        </Array>
                    </mxGeometry>
                </mxCell>
                <mxCell id="76" value="n:m" style="edgeLabel;html=1;align=center;verticalAlign=middle;resizable=0;points=[];" parent="75" vertex="1" connectable="0">
                    <mxGeometry x="-0.3" relative="1" as="geometry">
                        <mxPoint x="-20" y="-75" as="offset"/>
                    </mxGeometry>
                </mxCell>
                <mxCell id="user-attributes-group" value="" style="group" parent="1" vertex="1" connectable="0">
                    <mxGeometry x="450" y="140" width="220" height="140" as="geometry"/>
                </mxCell>
                <mxCell id="11" value="用户ID" style="ellipse;whiteSpace=wrap;html=1;fillColor=#fff2cc;strokeColor=#d6b656;" parent="user-attributes-group" vertex="1">
                    <mxGeometry width="100" height="40" as="geometry"/>
                </mxCell>
                <mxCell id="12" value="用户名" style="ellipse;whiteSpace=wrap;html=1;fillColor=#fff2cc;strokeColor=#d6b656;" parent="user-attributes-group" vertex="1">
                    <mxGeometry y="40" width="100" height="40" as="geometry"/>
                </mxCell>
                <mxCell id="13" value="密码(加密)" style="ellipse;whiteSpace=wrap;html=1;fillColor=#fff2cc;strokeColor=#d6b656;" parent="user-attributes-group" vertex="1">
                    <mxGeometry y="80" width="100" height="40" as="geometry"/>
                </mxCell>
                <mxCell id="14" value="联系方式" style="ellipse;whiteSpace=wrap;html=1;fillColor=#fff2cc;strokeColor=#d6b656;" parent="user-attributes-group" vertex="1">
                    <mxGeometry y="120" width="100" height="40" as="geometry"/>
                </mxCell>
                <mxCell id="user-connector" value="" style="edgeStyle=orthogonalEdgeStyle;rounded=0;orthogonalLoop=1;jettySize=auto;html=1;endArrow=none;endFill=0;entryX=0;entryY=0.5;entryDx=0;entryDy=0;" parent="1" source="3" target="11" edge="1">
                    <mxGeometry relative="1" as="geometry">
                        <Array as="points">
                            <mxPoint x="420" y="210"/>
                            <mxPoint x="420" y="160"/>
                        </Array>
                    </mxGeometry>
                </mxCell>
                <mxCell id="user-conn-1" value="" style="edgeStyle=orthogonalEdgeStyle;rounded=0;orthogonalLoop=1;jettySize=auto;html=1;endArrow=none;endFill=0;entryX=0;entryY=0.5;entryDx=0;entryDy=0;" parent="1" target="12" edge="1">
                    <mxGeometry relative="1" as="geometry">
                        <mxPoint x="420" y="180" as="sourcePoint"/>
                        <mxPoint x="460" y="190" as="targetPoint"/>
                        <Array as="points">
                            <mxPoint x="420" y="200"/>
                        </Array>
                    </mxGeometry>
                </mxCell>
                <mxCell id="user-conn-2" value="" style="edgeStyle=orthogonalEdgeStyle;rounded=0;orthogonalLoop=1;jettySize=auto;html=1;endArrow=none;endFill=0;entryX=0;entryY=0.5;entryDx=0;entryDy=0;" parent="1" target="13" edge="1">
                    <mxGeometry relative="1" as="geometry">
                        <mxPoint x="420" y="200" as="sourcePoint"/>
                        <mxPoint x="460" y="220" as="targetPoint"/>
                        <Array as="points">
                            <mxPoint x="420" y="240"/>
                        </Array>
                    </mxGeometry>
                </mxCell>
                <mxCell id="user-conn-3" value="" style="edgeStyle=orthogonalEdgeStyle;rounded=0;orthogonalLoop=1;jettySize=auto;html=1;endArrow=none;endFill=0;entryX=0;entryY=0.5;entryDx=0;entryDy=0;" parent="1" target="14" edge="1">
                    <mxGeometry relative="1" as="geometry">
                        <mxPoint x="420" y="240" as="sourcePoint"/>
                        <mxPoint x="460" y="270" as="targetPoint"/>
                        <Array as="points">
                            <mxPoint x="420" y="280"/>
                        </Array>
                    </mxGeometry>
                </mxCell>
                <mxCell id="product-attributes-group" value="" style="group" parent="1" vertex="1" connectable="0">
                    <mxGeometry x="450" y="320" width="210" height="160" as="geometry"/>
                </mxCell>
                <mxCell id="21" value="商品ID" style="ellipse;whiteSpace=wrap;html=1;fillColor=#fff2cc;strokeColor=#d6b656;" parent="product-attributes-group" vertex="1">
                    <mxGeometry width="100" height="40" as="geometry"/>
                </mxCell>
                <mxCell id="22" value="商品名称" style="ellipse;whiteSpace=wrap;html=1;fillColor=#fff2cc;strokeColor=#d6b656;" parent="product-attributes-group" vertex="1">
                    <mxGeometry x="110" width="100" height="40" as="geometry"/>
                </mxCell>
                <mxCell id="23" value="价格" style="ellipse;whiteSpace=wrap;html=1;fillColor=#fff2cc;strokeColor=#d6b656;" parent="product-attributes-group" vertex="1">
                    <mxGeometry y="40" width="100" height="40" as="geometry"/>
                </mxCell>
                <mxCell id="24" value="库存数量" style="ellipse;whiteSpace=wrap;html=1;fillColor=#fff2cc;strokeColor=#d6b656;" parent="product-attributes-group" vertex="1">
                    <mxGeometry x="110" y="40" width="100" height="40" as="geometry"/>
                </mxCell>
                <mxCell id="25" value="商品描述" style="ellipse;whiteSpace=wrap;html=1;fillColor=#fff2cc;strokeColor=#d6b656;" parent="product-attributes-group" vertex="1">
                    <mxGeometry y="80" width="100" height="40" as="geometry"/>
                </mxCell>
                <mxCell id="26" value="商品图片URL" style="ellipse;whiteSpace=wrap;html=1;fillColor=#fff2cc;strokeColor=#d6b656;" parent="product-attributes-group" vertex="1">
                    <mxGeometry x="110" y="80" width="100" height="40" as="geometry"/>
                </mxCell>
                <mxCell id="27" value="分类ID" style="ellipse;whiteSpace=wrap;html=1;fillColor=#fff2cc;strokeColor=#d6b656;" parent="product-attributes-group" vertex="1">
                    <mxGeometry y="120" width="100" height="40" as="geometry"/>
                </mxCell>
                <mxCell id="order-attributes-group" value="" style="group" parent="1" vertex="1" connectable="0">
                    <mxGeometry x="450" y="500" width="210" height="120" as="geometry"/>
                </mxCell>
                <mxCell id="41" value="订单ID" style="ellipse;whiteSpace=wrap;html=1;fillColor=#fff2cc;strokeColor=#d6b656;" parent="order-attributes-group" vertex="1">
                    <mxGeometry width="100" height="40" as="geometry"/>
                </mxCell>
                <mxCell id="42" value="用户ID" style="ellipse;whiteSpace=wrap;html=1;fillColor=#fff2cc;strokeColor=#d6b656;" parent="order-attributes-group" vertex="1">
                    <mxGeometry x="110" width="100" height="40" as="geometry"/>
                </mxCell>
                <mxCell id="43" value="订单总金额" style="ellipse;whiteSpace=wrap;html=1;fillColor=#fff2cc;strokeColor=#d6b656;" parent="order-attributes-group" vertex="1">
                    <mxGeometry y="40" width="100" height="40" as="geometry"/>
                </mxCell>
                <mxCell id="44" value="支付状态" style="ellipse;whiteSpace=wrap;html=1;fillColor=#fff2cc;strokeColor=#d6b656;" parent="order-attributes-group" vertex="1">
                    <mxGeometry x="110" y="40" width="100" height="40" as="geometry"/>
                </mxCell>
                <mxCell id="45" value="创建时间" style="ellipse;whiteSpace=wrap;html=1;fillColor=#fff2cc;strokeColor=#d6b656;" parent="order-attributes-group" vertex="1">
                    <mxGeometry y="80" width="100" height="40" as="geometry"/>
                </mxCell>
                <mxCell id="46" value="更新时间" style="ellipse;whiteSpace=wrap;html=1;fillColor=#fff2cc;strokeColor=#d6b656;" parent="order-attributes-group" vertex="1">
                    <mxGeometry x="110" y="80" width="100" height="40" as="geometry"/>
                </mxCell>
                <mxCell id="61" value="购物车信息" style="rounded=1;whiteSpace=wrap;html=1;fillColor=#d5e8d4;strokeColor=#82b366;fontStyle=1" parent="1" vertex="1">
                    <mxGeometry x="280" y="180" width="120" height="60" as="geometry"/>
                </mxCell>
            </root>
        </mxGraphModel>
    </diagram>
</mxfile>